HIERARCHY
ROOT Hip
{
  OFFSET 0.0 0.0 0.0
  CHANNELS 6 Xposition Yposition Zposition Xrotation Yrotation Zrotation
  JOINT LowerSpine
  {
    OFFSET 0.0 0.061367 -0.03653
    CHANNELS 3 Xrotation Yrotation Zrotation
    JOINT MiddleSpine
    {
      OFFSET 0.0 0.056002 0.002633
      CHANNELS 3 Xrotation Yrotation Zrotation
      JOINT Chest
      {
        OFFSET 0.0 0.069296 -0.013882
        CHANNELS 3 Xrotation Yrotation Zrotation
        JOINT Neck
        {
          OFFSET 0.0 0.156156 -0.002923
          CHANNELS 3 Xrotation Yrotation Zrotation
          JOINT Head
          {
            OFFSET 0.0 0.088183 0.023986
            CHANNELS 3 Xrotation Yrotation Zrotation
            End Site
            {
              OFFSET 1e-06 0.123215 0.003678
            }
          }
        }
        JOINT LClavicle
        {
          OFFSET 0.014189 0.150698 0.046467
          CHANNELS 3 Xrotation Yrotation Zrotation
          JOINT LShoulder
          {
            OFFSET 0.082893 0.021616 -0.034976
            CHANNELS 3 Xrotation Yrotation Zrotation
            JOINT LForearm
            {
              OFFSET 0.195645 -0.000695 -0.001695
              CHANNELS 3 Xrotation Yrotation Zrotation
              JOINT LHand
              {
                OFFSET 0.163209 0.000474 -0.000977
                CHANNELS 3 Xrotation Yrotation Zrotation
                End Site
                {
                  OFFSET 0.0 0.006864 0.0
                }
              }
            }
          }
        }
        JOINT RClavicle
        {
          OFFSET -0.014189 0.150698 0.046467
          CHANNELS 3 Xrotation Yrotation Zrotation
          JOINT RShoulder
          {
            OFFSET -0.082908 0.021619 -0.034982
            CHANNELS 3 Xrotation Yrotation Zrotation
            JOINT RForearm
            {
              OFFSET -0.195645 -0.000695 -0.001695
              CHANNELS 3 Xrotation Yrotation Zrotation
              JOINT RHand
              {
                OFFSET -0.163209 0.000474 -0.000977
                CHANNELS 3 Xrotation Yrotation Zrotation
                End Site
                {
                  OFFSET 0.0 0.006864 0.0
                }
              }
            }
          }
        }
      }
    }
  }
  JOINT RThigh
  {
    OFFSET -0.072558 0.02774 -0.005953
    CHANNELS 3 Xrotation Yrotation Zrotation
    JOINT RShin
    {
      OFFSET -0.005253 -0.285537 0.0
      CHANNELS 3 Xrotation Yrotation Zrotation
      JOINT RFoot
      {
        OFFSET 0.0 -0.28038 0.0
        CHANNELS 3 Xrotation Yrotation Zrotation
        JOINT RToe
        {
          OFFSET 0.0 -0.030816 0.064441
          CHANNELS 3 Xrotation Yrotation Zrotation
          End Site
          {
            OFFSET 0.0 0.0 0.043231
          }
        }
      }
    }
  }
  JOINT LThigh
  {
    OFFSET 0.072557 0.027741 -0.005953
    CHANNELS 3 Xrotation Yrotation Zrotation
    JOINT LShin
    {
      OFFSET 0.005253 -0.285539 0.0
      CHANNELS 3 Xrotation Yrotation Zrotation
      JOINT LFoot
      {
        OFFSET 0.0 -0.28038 0.0
        CHANNELS 3 Xrotation Yrotation Zrotation
        JOINT LToe
        {
          OFFSET 0.0 -0.030816 0.064441
          CHANNELS 3 Xrotation Yrotation Zrotation
          End Site
          {
            OFFSET 0.0 0.0 0.043231
          }
        }
      }
    }
  }
}
MOTION
Frames: 13
Frame Time: 0.03333333333333333
0.028685 0.577467 -0.004022 -4.02272 1.1201 1.465693 0.780035 -0.197903 0.000736 0.188412 1.299638 0.209227 0.763808 6.720753 -0.478357 0.096719 0.07612 0.062597 -0.01763 0.009002 0.000753 -0.292263 -0.230714 -11.84509 17.92996 -24.731573 -52.335648 10.002659 -34.056011 -0.831188 0.027599 0.059838 -0.018133 -0.568155 0.468113 13.393679 7.164009 38.885376 58.540001 5.796246 22.77924 3.677659 0.043631 -0.114475 0.01404 -1.765054 3.042036 -1.945328 9.551223 1.924212 0.723518 -1.818553 1.144673 0.527398 0.012973 0.191201 0.047794 9.123178 13.179603 1.016733 2.396305 8.185359 -3.042659 -3.022294 -0.250802 0.016929 -0.024135 -0.002528 0.010394 
0.028488 0.577694 -0.004344 -4.2911 1.268525 1.388945 0.768705 -0.203632 0.0179 0.234591 1.308957 0.205324 1.096171 6.787586 -0.611515 0.088184 0.088746 0.06665 -0.017015 -0.000686 -0.000306 -0.277481 -0.257097 -11.908172 17.931347 -24.970255 -52.249245 10.003105 -33.607422 -0.811926 0.028791 0.062824 -0.019573 -0.576996 0.495208 13.353675 7.199142 38.834812 58.436245 5.933042 23.303158 3.675846 0.034668 -0.114812 0.013039 -1.437801 3.268714 -1.783946 9.357805 2.065954 0.610815 -1.840057 1.159913 0.528735 0.009694 0.194427 0.051397 9.452206 13.15981 1.142995 2.31646 8.159697 -3.024247 -3.103715 -0.201823 0.05217 -0.020651 -0.007446 0.007019 
0.028278 0.577913 -0.004478 -4.501952 1.419927 1.31449 0.75242 -0.208217 0.03417 0.276483 1.312706 0.200392 1.385801 6.826859 -0.739728 0.078524 0.098831 0.06923 -0.016328 -0.009214 -0.001399 -0.264849 -0.27089 -11.971501 17.959692 -25.172571 -52.171928 9.991322 -33.200478 -0.806726 0.029898 0.065434 -0.020786 -0.579574 0.525848 13.318357 7.271423 38.779476 58.295589 6.033259 23.83296 3.686541 0.027805 -0.114769 0.012371 -1.134081 3.469967 -1.629222 9.140367 2.202909 0.503064 -1.865538 1.173506 0.531699 0.008258 0.197558 0.054351 9.711224 13.138144 1.276308 2.296602 8.15316 -3.011163 -3.173809 -0.154978 0.083989 -0.0174 -0.010899 0.004424 
0.027939 0.578128 -0.00445 -4.684328 1.554506 1.25528 0.734509 -0.212603 0.049778 0.314021 1.313404 0.193411 1.654163 6.844264 -0.871318 0.072858 0.108307 0.070439 -0.015592 -0.017466 -0.002617 -0.250879 -0.273605 -12.037825 18.002981 -25.343786 -52.103485 9.969756 -32.81665 -0.804529 0.030985 0.067633 -0.021903 -0.578922 0.551842 13.290031 7.362078 38.723621 58.146809 6.146955 24.404028 3.702138 0.02047 -0.113195 0.011742 -0.854555 3.646461 -1.484491 8.939734 2.327214 0.396533 -1.889663 1.18348 0.534546 0.007036 0.19923 0.056784 9.922462 13.151736 1.412104 2.299247 8.178823 -3.001445 -3.23552 -0.106006 0.116254 -0.013997 -0.013741 0.002123 
0.027496 0.57834 -0.004273 -4.847912 1.662957 1.21345 0.71555 -0.217045 0.06485 0.347411 1.312414 0.185293 1.901361 6.846775 -1.003065 0.069167 0.117016 0.071452 -0.014847 -0.025508 -0.003922 -0.236213 -0.271655 -12.102784 18.070362 -25.502707 -52.035633 9.960593 -32.470467 -0.801656 0.032032 0.069507 -0.023011 -0.577515 0.575992 13.267546 7.47394 38.677971 58.000343 6.275233 25.002619 3.718672 0.012677 -0.110839 0.011093 -0.590417 3.797394 -1.359029 8.749834 2.436389 0.295343 -1.909472 1.191983 0.537762 0.005429 0.19958 0.058711 10.10215 13.192353 1.54018 2.302552 8.221812 -2.992872 -3.287062 -0.058859 0.147367 -0.010489 -0.016448 -8.1e-05 
0.026907 0.578551 -0.003922 -4.968594 1.736127 1.201649 0.694012 -0.217558 0.081478 0.377796 1.314401 0.170297 2.11881 6.842034 -1.134634 0.068066 0.121154 0.070049 -0.014157 -0.033798 -0.005282 -0.234683 -0.272113 -12.165437 18.151594 -25.631098 -52.002502 9.961835 -32.151825 -0.80529 0.032428 0.070183 -0.023203 -0.577113 0.60775 13.240498 7.576066 38.585846 57.890984 6.356131 25.648991 3.759209 0.005105 -0.107368 0.010632 -0.363422 3.928475 -1.252872 8.575832 2.542644 0.196636 -1.937042 1.200417 0.542496 0.002953 0.197656 0.059591 10.243996 13.245842 1.652884 2.289219 8.282199 -2.963602 -3.317267 -0.012855 0.177091 -0.007412 -0.018663 -0.001959 
0.026405 0.578751 -0.003537 -5.0609 1.743988 1.212536 0.671459 -0.215459 0.099713 0.403525 1.313629 0.153516 2.321987 6.834373 -1.248649 0.066917 0.122492 0.068039 -0.013939 -0.040286 -0.00642 -0.241049 -0.274669 -12.251095 18.233992 -25.755096 -51.992855 9.988952 -31.840799 -0.824113 0.031869 0.069164 -0.022342 -0.5745 0.644483 13.217279 7.652896 38.458069 57.762829 6.334592 26.343418 3.825391 -0.001521 -0.102974 0.010407 -0.176501 4.054178 -1.190886 8.435284 2.644338 0.103044 -1.979465 1.200162 0.544502 0.000518 0.193304 0.059616 10.366829 13.296439 1.734316 2.258506 8.344572 -2.927084 -3.341308 0.035437 0.205924 -0.00537 -0.019751 -0.00341 
0.026009 0.578967 -0.003111 -5.139885 1.717916 1.236964 0.646633 -0.212298 0.120107 0.430829 1.31264 0.140034 2.524647 6.821364 -1.349175 0.063522 0.122056 0.066804 -0.013832 -0.04531 -0.007601 -0.247972 -0.281584 -12.355403 18.314795 -25.883036 -51.998001 10.030119 -31.554235 -0.844913 0.031066 0.067656 -0.021128 -0.56903 0.685327 13.203196 7.728284 38.301708 57.620541 6.213339 27.087091 3.918966 -0.007221 -0.099024 0.01021 -0.005271 4.160127 -1.159775 8.298861 2.734033 0.01149 -2.03261 1.196894 0.546053 -0.002235 0.187867 0.059265 10.473585 13.336206 1.78213 2.207274 8.396155 -2.888561 -3.363656 0.085142 0.234381 -0.00371 -0.020582 -0.004491 
0.025599 0.5792 -0.002618 -5.210013 1.661906 1.282363 0.615661 -0.207276 0.140682 0.458203 1.315069 0.123697 2.714228 6.794968 -1.466002 0.056198 0.120799 0.064851 -0.01339 -0.049622 -0.008986 -0.25263 -0.282667 -12.459486 18.410105 -26.009853 -51.996292 10.077765 -31.290785 -0.86725 0.03055 0.066482 -0.02005 -0.559745 0.727328 13.192118 7.831324 38.131531 57.481159 6.081127 27.893572 4.007903 -0.011632 -0.097239 0.009926 0.112512 4.252898 -1.141864 8.187492 2.812596 -0.081824 -2.0727 1.197853 0.551754 -0.004603 0.182036 0.058918 10.569555 13.376371 1.820993 2.16367 8.464396 -2.86681 -3.378058 0.131933 0.260135 -0.001794 -0.021848 -0.005287 
0.025214 0.579476 -0.001953 -5.257795 1.601127 1.330432 0.584439 -0.202318 0.160431 0.482069 1.315759 0.107512 2.879946 6.766132 -1.572718 0.048511 0.118895 0.062881 -0.012996 -0.053322 -0.010324 -0.257126 -0.280921 -12.560111 18.51296 -26.116772 -51.990005 10.127952 -31.066252 -0.891283 0.029956 0.06516 -0.018954 -0.54909 0.766574 13.182859 7.936442 37.966309 57.346466 5.950332 28.68997 4.094683 -0.015907 -0.095321 0.009662 0.21851 4.323676 -1.136336 8.093105 2.876935 -0.167837 -2.107508 1.198677 0.557908 -0.007086 0.176055 0.058384 10.6431 13.424313 1.851999 2.11808 8.53565 -2.844125 -3.385338 0.173946 0.283297 -2.7e-05 -0.022971 -0.006063 
0.024879 0.579823 -0.001076 -5.283224 1.562556 1.373646 0.554992 -0.197446 0.175611 0.50274 1.313228 0.095457 3.021516 6.735948 -1.654262 0.039876 0.117615 0.064071 -0.01274 -0.056203 -0.011386 -0.259183 -0.275454 -12.65422 18.603245 -26.200487 -52.00478 10.186179 -30.866926 -0.918192 0.029452 0.063676 -0.017821 -0.538642 0.802637 13.183354 8.026723 37.765793 57.240044 5.775944 29.499199 4.20447 -0.019747 -0.093095 0.009497 0.328686 4.344191 -1.146902 8.006386 2.908748 -0.240911 -2.136678 1.200087 0.564475 -0.008941 0.170774 0.057912 10.701683 13.466026 1.876469 2.050735 8.591791 -2.812035 -3.380862 0.210784 0.303592 0.001362 -0.023669 -0.006641 
0.024677 0.58027 -2.1e-05 -5.284806 1.536171 1.407622 0.5254 -0.192975 0.187732 0.520053 1.309238 0.084877 3.144113 6.705255 -1.716986 0.030365 0.115747 0.065561 -0.012543 -0.058201 -0.012347 -0.258981 -0.263872 -12.744344 18.693115 -26.264709 -52.018105 10.24967 -30.709986 -0.948809 0.028923 0.0621 -0.01668 -0.526682 0.832898 13.188602 8.117644 37.545296 57.144478 5.587961 30.298306 4.312391 -0.023147 -0.090942 0.009422 0.428291 4.326991 -1.173601 7.941662 2.915013 -0.299681 -2.155162 1.201673 0.571848 -0.010563 0.16568 0.057281 10.738324 13.508068 1.891021 1.978864 8.63912 -2.77104 -3.366914 0.240125 0.320555 0.002513 -0.024149 -0.00712 
0.024634 0.580833 0.001185 -5.259606 1.516633 1.434108 0.4937 -0.188717 0.196969 0.534491 1.304293 0.074651 3.244631 6.670835 -1.761733 0.018493 0.112505 0.065996 -0.012431 -0.058868 -0.013141 -0.256194 -0.244455 -12.831637 18.789101 -26.306063 -52.02219 10.316512 -30.610674 -0.985701 0.028291 0.060342 -0.015501 -0.511415 0.856981 13.19759 8.215757 37.309124 57.054581 5.392086 31.091103 4.41719 -0.025692 -0.088918 0.00946 0.517445 4.271858 -1.214937 7.886234 2.897107 -0.343449 -2.164509 1.205366 0.581176 -0.011871 0.160606 0.056279 10.752334 13.544445 1.891103 1.913178 8.679072 -2.720536 -3.342645 0.260991 0.333248 0.003299 -0.024279 -0.007403 
